<mxfile host="app.diagrams.net" modified="2023-10-09T10:56:08.213Z" agent="Mozilla/5.0 (Macintosh; Intel Mac OS X 10_15_7) AppleWebKit/537.36 (KHTML, like Gecko) Chrome/117.0.0.0 Safari/537.36" etag="lnE0nLWjwMtsvugASo6W" version="22.0.4" type="github">
  <diagram name="Page-1" id="OvvoKKy10x0kGAaWaokc">
    <mxGraphModel dx="1026" dy="576" grid="1" gridSize="10" guides="1" tooltips="1" connect="1" arrows="1" fold="1" page="1" pageScale="1" pageWidth="850" pageHeight="1100" math="0" shadow="0">
      <root>
        <mxCell id="0" />
        <mxCell id="1" parent="0" />
        <mxCell id="pZgdfJ_zKTqpzOzUL0iS-36" value="" style="rounded=1;whiteSpace=wrap;html=1;absoluteArcSize=1;arcSize=14;strokeWidth=2;" parent="1" vertex="1">
          <mxGeometry x="140" y="50" width="510" height="500" as="geometry" />
        </mxCell>
        <mxCell id="pZgdfJ_zKTqpzOzUL0iS-39" value="" style="edgeStyle=orthogonalEdgeStyle;rounded=0;orthogonalLoop=1;jettySize=auto;html=1;fillColor=#d5e8d4;strokeColor=#82b366;" parent="1" source="pZgdfJ_zKTqpzOzUL0iS-2" target="pZgdfJ_zKTqpzOzUL0iS-3" edge="1">
          <mxGeometry relative="1" as="geometry" />
        </mxCell>
        <mxCell id="pZgdfJ_zKTqpzOzUL0iS-2" value="Start" style="strokeWidth=2;html=1;shape=mxgraph.flowchart.start_2;whiteSpace=wrap;fillColor=#dae8fc;strokeColor=#6c8ebf;" parent="1" vertex="1">
          <mxGeometry x="290" y="70" width="80" height="60" as="geometry" />
        </mxCell>
        <mxCell id="pZgdfJ_zKTqpzOzUL0iS-40" value="" style="edgeStyle=orthogonalEdgeStyle;rounded=0;orthogonalLoop=1;jettySize=auto;html=1;fillColor=#d5e8d4;strokeColor=#82b366;" parent="1" source="pZgdfJ_zKTqpzOzUL0iS-3" target="pZgdfJ_zKTqpzOzUL0iS-5" edge="1">
          <mxGeometry relative="1" as="geometry" />
        </mxCell>
        <mxCell id="pZgdfJ_zKTqpzOzUL0iS-3" value="User Goes to Detail Page" style="rounded=1;whiteSpace=wrap;html=1;absoluteArcSize=1;arcSize=14;strokeWidth=2;fillColor=#d5e8d4;strokeColor=#82b366;" parent="1" vertex="1">
          <mxGeometry x="425" y="80" width="160" height="40" as="geometry" />
        </mxCell>
        <mxCell id="pZgdfJ_zKTqpzOzUL0iS-20" value="" style="edgeStyle=orthogonalEdgeStyle;rounded=0;orthogonalLoop=1;jettySize=auto;html=1;fillColor=#d5e8d4;strokeColor=#82b366;" parent="1" source="pZgdfJ_zKTqpzOzUL0iS-5" target="pZgdfJ_zKTqpzOzUL0iS-13" edge="1">
          <mxGeometry relative="1" as="geometry" />
        </mxCell>
        <mxCell id="pZgdfJ_zKTqpzOzUL0iS-5" value="Clicks &#39;Get Data&#39;" style="rounded=1;whiteSpace=wrap;html=1;absoluteArcSize=1;arcSize=14;strokeWidth=2;fillColor=#d5e8d4;strokeColor=#82b366;" parent="1" vertex="1">
          <mxGeometry x="425" y="140" width="160" height="40" as="geometry" />
        </mxCell>
        <mxCell id="pZgdfJ_zKTqpzOzUL0iS-10" style="edgeStyle=orthogonalEdgeStyle;rounded=0;orthogonalLoop=1;jettySize=auto;html=1;exitX=0.5;exitY=1;exitDx=0;exitDy=0;entryX=0.5;entryY=0;entryDx=0;entryDy=0;fillColor=#d5e8d4;strokeColor=#82b366;" parent="1" source="pZgdfJ_zKTqpzOzUL0iS-7" target="pZgdfJ_zKTqpzOzUL0iS-43" edge="1">
          <mxGeometry relative="1" as="geometry">
            <mxPoint x="505" y="460" as="targetPoint" />
          </mxGeometry>
        </mxCell>
        <mxCell id="pZgdfJ_zKTqpzOzUL0iS-7" value="System Load Data in Table" style="rounded=1;whiteSpace=wrap;html=1;absoluteArcSize=1;arcSize=14;strokeWidth=2;fillColor=#d5e8d4;strokeColor=#82b366;" parent="1" vertex="1">
          <mxGeometry x="425" y="390" width="160" height="40" as="geometry" />
        </mxCell>
        <mxCell id="pZgdfJ_zKTqpzOzUL0iS-11" value="" style="ellipse;html=1;shape=endState;fillColor=#000000;strokeColor=#ff0000;" parent="1" vertex="1">
          <mxGeometry x="320" y="460" width="40" height="40" as="geometry" />
        </mxCell>
        <mxCell id="pZgdfJ_zKTqpzOzUL0iS-21" value="" style="edgeStyle=orthogonalEdgeStyle;rounded=0;orthogonalLoop=1;jettySize=auto;html=1;fillColor=#d5e8d4;strokeColor=#82b366;" parent="1" source="pZgdfJ_zKTqpzOzUL0iS-13" target="pZgdfJ_zKTqpzOzUL0iS-14" edge="1">
          <mxGeometry relative="1" as="geometry" />
        </mxCell>
        <mxCell id="pZgdfJ_zKTqpzOzUL0iS-13" value="System calls DP API" style="rounded=1;whiteSpace=wrap;html=1;absoluteArcSize=1;arcSize=14;strokeWidth=2;fillColor=#d5e8d4;strokeColor=#82b366;" parent="1" vertex="1">
          <mxGeometry x="425" y="200" width="160" height="40" as="geometry" />
        </mxCell>
        <mxCell id="pZgdfJ_zKTqpzOzUL0iS-31" value="" style="edgeStyle=orthogonalEdgeStyle;rounded=0;orthogonalLoop=1;jettySize=auto;html=1;fillColor=#f8cecc;strokeColor=#b85450;" parent="1" source="pZgdfJ_zKTqpzOzUL0iS-14" target="pZgdfJ_zKTqpzOzUL0iS-30" edge="1">
          <mxGeometry relative="1" as="geometry" />
        </mxCell>
        <mxCell id="pZgdfJ_zKTqpzOzUL0iS-14" value="Success" style="strokeWidth=2;html=1;shape=mxgraph.flowchart.decision;whiteSpace=wrap;fillColor=#fff2cc;strokeColor=#d6b656;" parent="1" vertex="1">
          <mxGeometry x="465" y="280" width="80" height="80" as="geometry" />
        </mxCell>
        <mxCell id="pZgdfJ_zKTqpzOzUL0iS-25" value="" style="edgeStyle=orthogonalEdgeStyle;rounded=0;orthogonalLoop=1;jettySize=auto;html=1;exitX=0.5;exitY=1;exitDx=0;exitDy=0;exitPerimeter=0;entryX=0.5;entryY=0;entryDx=0;entryDy=0;fillColor=#d5e8d4;strokeColor=#82b366;" parent="1" source="pZgdfJ_zKTqpzOzUL0iS-14" target="pZgdfJ_zKTqpzOzUL0iS-7" edge="1">
          <mxGeometry relative="1" as="geometry">
            <mxPoint x="350" y="330" as="sourcePoint" />
            <mxPoint x="480" y="440" as="targetPoint" />
          </mxGeometry>
        </mxCell>
        <mxCell id="pZgdfJ_zKTqpzOzUL0iS-26" value="&lt;font color=&quot;#82b366&quot;&gt;Yes&lt;/font&gt;" style="text;html=1;align=center;verticalAlign=middle;resizable=0;points=[];autosize=1;strokeColor=none;fillColor=none;" parent="1" vertex="1">
          <mxGeometry x="510" y="360" width="40" height="30" as="geometry" />
        </mxCell>
        <mxCell id="pZgdfJ_zKTqpzOzUL0iS-42" style="edgeStyle=orthogonalEdgeStyle;rounded=0;orthogonalLoop=1;jettySize=auto;html=1;entryX=0.5;entryY=0;entryDx=0;entryDy=0;fillColor=#f8cecc;strokeColor=#b85450;" parent="1" source="pZgdfJ_zKTqpzOzUL0iS-30" target="pZgdfJ_zKTqpzOzUL0iS-11" edge="1">
          <mxGeometry relative="1" as="geometry" />
        </mxCell>
        <mxCell id="pZgdfJ_zKTqpzOzUL0iS-30" value="Error Message" style="whiteSpace=wrap;html=1;strokeWidth=2;fillColor=#f8cecc;strokeColor=#b85450;rounded=1;" parent="1" vertex="1">
          <mxGeometry x="280" y="302.5" width="120" height="35" as="geometry" />
        </mxCell>
        <mxCell id="pZgdfJ_zKTqpzOzUL0iS-35" value="&lt;font color=&quot;#b85450&quot;&gt;No&lt;/font&gt;" style="text;html=1;align=center;verticalAlign=middle;resizable=0;points=[];autosize=1;strokeColor=none;fillColor=none;" parent="1" vertex="1">
          <mxGeometry x="420" y="290" width="40" height="30" as="geometry" />
        </mxCell>
        <mxCell id="pZgdfJ_zKTqpzOzUL0iS-45" value="" style="edgeStyle=orthogonalEdgeStyle;rounded=0;orthogonalLoop=1;jettySize=auto;html=1;fillColor=#d5e8d4;strokeColor=#82b366;" parent="1" source="pZgdfJ_zKTqpzOzUL0iS-43" target="pZgdfJ_zKTqpzOzUL0iS-11" edge="1">
          <mxGeometry relative="1" as="geometry" />
        </mxCell>
        <mxCell id="pZgdfJ_zKTqpzOzUL0iS-43" value="User Selects Check Option" style="rounded=1;whiteSpace=wrap;html=1;absoluteArcSize=1;arcSize=14;strokeWidth=2;fillColor=#d5e8d4;strokeColor=#82b366;" parent="1" vertex="1">
          <mxGeometry x="425" y="460" width="160" height="40" as="geometry" />
        </mxCell>
      </root>
    </mxGraphModel>
  </diagram>
</mxfile>
